<svg width="103" height="32" viewBox="0 0 103 32" fill="none" xmlns="http://www.w3.org/2000/svg">
<path d="M45.7323 20.5765C46.7357 20.5765 47.7392 20.5765 48.773 20.5765C48.9636 21.033 49.1502 21.4835 49.3153 21.9478C49.3352 22.0031 49.355 22.0584 49.3754 22.1154C49.4399 22.2957 49.5041 22.4761 49.5682 22.6565C49.5904 22.7189 49.6127 22.7813 49.6356 22.8455C50.0002 23.8694 50.3548 24.8962 50.7035 25.9251C50.7255 25.9901 50.7476 26.0551 50.7703 26.122C50.9059 26.5225 51.0403 26.9233 51.1736 27.3245C51.2008 27.4058 51.228 27.4871 51.2561 27.5709C51.2892 27.6726 51.2892 27.6726 51.323 27.7762C51.3411 27.8312 51.3591 27.8862 51.3777 27.9429C51.4137 28.0914 51.4137 28.0914 51.4137 28.3981C51.4665 28.3981 51.5193 28.3981 51.5737 28.3981C51.5918 28.3098 51.61 28.2215 51.6286 28.1306C51.7599 27.5661 51.9524 27.0179 52.1351 26.4673C52.175 26.3462 52.2149 26.2252 52.2547 26.1042C52.3595 25.7862 52.4647 25.4684 52.5699 25.1505C52.6754 24.8319 52.7805 24.5131 52.8856 24.1943C53.0262 23.768 53.167 23.3418 53.308 22.9156C53.452 22.4807 53.5955 22.0457 53.7372 21.6101C53.76 21.5403 53.7827 21.4705 53.8061 21.3986C53.8458 21.2768 53.8853 21.1549 53.9245 21.0329C54.0454 20.6617 54.0454 20.6617 54.1343 20.5765C55.1642 20.5765 56.194 20.5765 57.2551 20.5765C57.2551 24.0686 57.2551 27.5607 57.2551 31.1587C56.5685 31.1587 55.882 31.1587 55.1746 31.1587C55.1746 28.6534 55.1746 26.1482 55.1746 23.5671C55.1218 23.5671 55.069 23.5671 55.0145 23.5671C54.9973 23.6415 54.9973 23.6415 54.9798 23.7173C54.8111 24.4056 54.579 25.0681 54.3414 25.7365C53.8822 27.0299 53.4454 28.3294 53.0241 29.6346C52.9992 29.7115 52.9744 29.7884 52.9488 29.8677C52.81 30.2979 52.6719 30.7282 52.5339 31.1587C51.8738 31.1587 51.2136 31.1587 50.5334 31.1587C49.8872 29.403 49.2517 27.6441 48.6354 25.8784C48.5704 25.6922 48.5053 25.5059 48.44 25.3197C48.3482 25.0576 48.2568 24.7952 48.1657 24.5328C48.138 24.4539 48.1103 24.3749 48.0817 24.2936C48.0567 24.2213 48.0317 24.1489 48.006 24.0744C47.984 24.0113 47.962 23.9482 47.9394 23.8831C47.8928 23.7205 47.8928 23.7205 47.8928 23.4904C47.84 23.4904 47.7872 23.4904 47.7328 23.4904C47.7328 26.0209 47.7328 28.5515 47.7328 31.1587C47.0726 31.1587 46.4124 31.1587 45.7323 31.1587C45.7323 27.6665 45.7323 24.1744 45.7323 20.5765Z" fill="#232323"/>
<path d="M89.5896 20.6097C90.5088 20.6034 91.4281 20.597 92.3752 20.5906C92.6635 20.5878 92.9519 20.585 93.2489 20.5821C93.6059 20.5807 93.6059 20.5807 93.774 20.5805C93.8893 20.58 94.0046 20.579 94.1199 20.5774C95.1826 20.5637 96.1561 20.7003 96.9908 21.3741C97.5443 21.9141 97.8189 22.5386 97.8448 23.2851C97.8215 23.9555 97.6241 24.5051 97.1366 25.0021C96.8726 25.2151 96.5708 25.3605 96.2588 25.502C96.3283 25.5334 96.3283 25.5334 96.3992 25.5656C97.2045 25.9544 97.7869 26.4186 98.0725 27.2434C98.2661 28.0806 98.1953 28.8848 97.7228 29.6298C96.9821 30.6555 95.9854 30.8774 94.7135 31.1587C93.0226 31.1587 91.3317 31.1587 89.5896 31.1587C89.5896 27.6775 89.5896 24.1963 89.5896 20.6097ZM91.9482 22.3678C91.9482 23.1751 91.9482 23.9823 91.9482 24.814C92.3206 24.8203 92.693 24.8266 93.0767 24.8331C93.1924 24.8359 93.3081 24.8387 93.4274 24.8415C94.0895 24.8469 94.7472 24.8241 95.2632 24.387C95.5463 24.0871 95.5797 23.7799 95.5551 23.3893C95.5063 23.0777 95.4261 22.8512 95.1513 22.6572C94.695 22.3986 94.3474 22.3583 93.8226 22.3604C93.6752 22.3607 93.6752 22.3607 93.5249 22.3609C93.3382 22.362 93.3382 22.362 93.1478 22.3631C92.752 22.3646 92.3561 22.3662 91.9482 22.3678ZM91.9482 26.5721C91.9482 27.4803 91.9482 28.3884 91.9482 29.3241C92.3457 29.3304 92.7433 29.3367 93.1529 29.3432C93.2764 29.346 93.3999 29.3487 93.5271 29.3516C94.2643 29.3572 95.0046 29.3315 95.5725 28.8367C95.8311 28.3929 95.9134 27.9906 95.8521 27.4894C95.7149 27.1295 95.5443 26.9301 95.2015 26.725C94.7917 26.5921 94.4194 26.5511 93.9894 26.5572C93.9372 26.5574 93.8851 26.5575 93.8313 26.5577C93.639 26.5585 93.4468 26.5606 93.2546 26.5626C92.6079 26.5673 92.6079 26.5673 91.9482 26.5721Z" fill="#232323"/>
<path d="M86.2973 3.64496C88.7926 3.64496 91.2878 3.64496 93.8587 3.64496C93.8587 4.33341 93.8587 5.02186 93.8587 5.73116C92.1416 5.73116 90.4244 5.73116 88.6552 5.73116C88.6552 6.47061 88.6552 7.21005 88.6552 7.9719C90.2382 7.9719 91.8212 7.9719 93.4522 7.9719C93.4522 8.60935 93.4522 9.2468 93.4522 9.90357C91.8692 9.90357 90.2862 9.90357 88.6552 9.90357C88.6552 10.7195 88.6552 11.5354 88.6552 12.3761C90.3992 12.3761 92.1432 12.3761 93.94 12.3761C93.94 13.0646 93.94 13.753 93.94 14.4623C91.4179 14.4623 88.8958 14.4623 86.2973 14.4623C86.2973 10.8926 86.2973 7.32286 86.2973 3.64496Z" fill="#232323"/>
<path d="M78.6732 20.5765C79.4446 20.5765 80.216 20.5765 81.0107 20.5765C81.0119 20.7861 81.0131 20.9958 81.0143 21.2118C81.0184 21.9069 81.0237 22.602 81.0297 23.2971C81.0333 23.7183 81.0365 24.1394 81.0387 24.5606C81.0408 24.9675 81.044 25.3745 81.0481 25.7814C81.0494 25.9361 81.0504 26.0909 81.0509 26.2456C81.0166 27.729 81.0166 27.729 81.75 28.9813C82.2284 29.3778 82.7824 29.4353 83.3939 29.4275C83.9338 29.3812 84.4712 29.217 84.8798 28.8729C85.3625 28.2361 85.4675 27.5458 85.4697 26.777C85.4705 26.7095 85.4713 26.642 85.4722 26.5724C85.4746 26.3517 85.476 26.131 85.4774 25.9103C85.4789 25.7563 85.4805 25.6023 85.4821 25.4482C85.4862 25.0448 85.4894 24.6413 85.4924 24.2378C85.4957 23.8253 85.4998 23.4128 85.5038 23.0003C85.5116 22.1924 85.5183 21.3844 85.5246 20.5765C86.2694 20.5765 87.0142 20.5765 87.7815 20.5765C87.7907 21.5468 87.798 22.5172 87.8024 23.4875C87.8045 23.9382 87.8073 24.3889 87.8119 24.8396C87.8163 25.2754 87.8187 25.7112 87.8198 26.1471C87.8205 26.3125 87.8219 26.4778 87.8241 26.6432C87.8413 27.9922 87.7479 29.2137 86.7337 30.2557C86.5312 30.4344 86.3244 30.5801 86.0888 30.7166C86.0422 30.7446 85.9955 30.7726 85.9475 30.8015C84.6587 31.4939 82.8995 31.523 81.4944 31.1775C80.4912 30.8655 79.6494 30.321 79.1131 29.4359C78.7566 28.7306 78.6482 28.0338 78.6549 27.2567C78.6549 27.1839 78.6549 27.1111 78.6548 27.0361C78.655 26.7984 78.6562 26.5606 78.6575 26.3229C78.6578 26.1569 78.658 25.991 78.6582 25.825C78.6588 25.3903 78.6604 24.9556 78.6622 24.521C78.6638 24.0766 78.6645 23.6321 78.6654 23.1877C78.6671 22.3173 78.6699 21.4469 78.6732 20.5765Z" fill="#232323"/>
<path d="M75.8299 21.0999C76.3421 21.478 76.6749 21.9802 76.8814 22.5635C76.9214 22.983 76.9214 22.983 76.9623 23.4109C76.2149 23.4109 75.4675 23.4109 74.6975 23.4109C74.6174 23.1821 74.5373 22.9533 74.4548 22.7176C74.0732 22.3379 73.6877 22.1796 73.1411 22.1525C73.0162 22.1507 72.8913 22.1497 72.7664 22.1495C72.7045 22.1476 72.6427 22.1457 72.579 22.1438C72.0178 22.1411 71.6055 22.3049 71.179 22.6502C70.9974 22.9817 70.9996 23.276 71.0577 23.642C71.2736 24.1375 71.6951 24.2935 72.1901 24.4893C72.6159 24.6192 73.0466 24.7284 73.4792 24.836C74.7273 25.1471 76.0457 25.4859 76.8005 26.5692C77.268 27.3574 77.357 28.2242 77.1082 29.1004C76.7832 29.9238 76.1545 30.5586 75.3294 30.9503C73.7656 31.5506 71.9286 31.5402 70.3749 30.9272C69.3676 30.4716 68.8331 29.875 68.4501 28.8777C68.369 28.5768 68.3436 28.2645 68.3076 27.9557C69.1084 27.9557 69.9091 27.9557 70.7341 27.9557C70.8142 28.2354 70.8943 28.515 70.9768 28.8031C71.4314 29.288 71.8995 29.4665 72.574 29.5207C73.3041 29.5501 73.9751 29.4908 74.5989 29.0974C74.8636 28.8607 74.8943 28.5956 74.9149 28.2687C74.8944 27.8841 74.8355 27.6408 74.5386 27.3735C73.8366 26.9 72.9384 26.7497 72.1222 26.5374C70.9562 26.2315 69.8389 25.8574 69.1164 24.8745C68.7167 24.1826 68.5692 23.4158 68.773 22.6394C68.9176 22.244 69.0838 21.8917 69.3591 21.5621C69.3942 21.5197 69.4294 21.4773 69.4656 21.4336C70.9433 19.8359 74.1345 19.9218 75.8299 21.0999Z" fill="#232323"/>
<path d="M82.9343 4.23537C83.0675 4.33902 83.1981 4.44592 83.3252 4.55638C83.3824 4.60568 83.4396 4.65499 83.4985 4.7058C83.8534 5.04902 84.0899 5.43317 84.3177 5.85955C84.3445 5.90955 84.3713 5.95955 84.3989 6.01106C84.5977 6.40389 84.6651 6.71687 84.7688 7.16272C83.9748 7.16272 83.1809 7.16272 82.3628 7.16272C82.2041 6.85915 82.0453 6.55559 81.8817 6.24283C81.3761 5.74198 80.8491 5.51927 80.1173 5.47626C80.0543 5.47132 79.9914 5.46638 79.9265 5.46129C79.2528 5.43106 78.7047 5.61734 78.1725 6.01286C77.3724 6.73275 77.1784 7.80787 77.1396 8.80964C77.1216 9.93686 77.2196 11.0459 78.0322 11.9155C78.4683 12.311 78.9622 12.4806 79.5559 12.5287C79.6435 12.5361 79.6435 12.5361 79.7329 12.5437C80.4227 12.5756 81.0738 12.4013 81.6711 12.0736C82.0218 11.7527 82.229 11.2473 82.443 10.8423C83.1841 10.8423 83.9251 10.8423 84.6886 10.8423C84.4662 12.0114 84.0423 12.9462 83.0311 13.6807C81.7011 14.5288 80.1198 14.7397 78.5525 14.4691C77.2664 14.1659 76.2768 13.4891 75.526 12.4473C75.2829 12.0574 75.1224 11.6589 74.9846 11.2255C74.9462 11.105 74.9462 11.105 74.9069 10.9821C74.4342 9.1683 74.6107 7.07389 75.6179 5.45504C76.3071 4.42598 77.415 3.79361 78.6437 3.51411C80.1201 3.27427 81.6816 3.42138 82.9343 4.23537Z" fill="#232323"/>
<path d="M58.4309 20.5765C59.2488 20.5765 60.0668 20.5765 60.9095 20.5765C61.2206 21.113 61.5316 21.6495 61.8421 22.1863C62.0219 22.497 62.2021 22.8075 62.3825 23.1179C62.501 23.3219 62.6193 23.5261 62.7374 23.7303C62.7947 23.8292 62.8521 23.928 62.9097 24.0267C62.9902 24.165 63.0703 24.3035 63.1504 24.4421C63.1963 24.5212 63.2423 24.6004 63.2897 24.682C63.3881 24.8707 63.3881 24.8707 63.3881 25.0241C63.4408 25.0241 63.4936 25.0241 63.548 25.0241C63.5692 24.9703 63.5904 24.9165 63.6123 24.861C63.7142 24.626 63.8322 24.4063 63.9577 24.1821C64.0073 24.0934 64.0568 24.0048 64.1079 23.9134C64.1611 23.8187 64.2143 23.7241 64.2676 23.6294C64.3219 23.5325 64.3762 23.4356 64.4305 23.3386C64.9508 22.4115 65.4819 21.4906 66.0266 20.5765C66.8181 20.5765 67.6096 20.5765 68.4252 20.5765C68.3568 20.8387 68.2908 20.9968 68.155 21.2262C68.095 21.328 68.095 21.328 68.0337 21.4319C67.9897 21.5055 67.9458 21.579 67.9005 21.6548C67.8545 21.7323 67.8085 21.8098 67.7612 21.8897C67.3526 22.5754 66.9316 23.2538 66.5098 23.932C65.9953 24.7618 65.5034 25.6026 65.0169 26.4477C64.9072 26.6344 64.9072 26.6344 64.7826 26.8113C64.6536 27.0423 64.6359 27.1813 64.6328 27.4415C64.6312 27.5243 64.6296 27.6072 64.628 27.6926C64.6274 27.7812 64.6269 27.8698 64.6264 27.9611C64.6243 28.0981 64.6243 28.0981 64.6221 28.2379C64.6177 28.5294 64.615 28.8208 64.6124 29.1122C64.6097 29.31 64.6069 29.5077 64.6041 29.7054C64.5971 30.1899 64.5923 30.6742 64.5874 31.1587C63.8486 31.1587 63.1098 31.1587 62.3486 31.1587C62.354 30.884 62.3594 30.6093 62.3649 30.3262C62.3668 30.0544 62.3671 29.7826 62.3672 29.5107C62.3681 29.3246 62.3708 29.1385 62.3752 28.9524C62.4055 27.6272 62.2139 26.7444 61.4253 25.6483C61.2708 25.4298 61.1408 25.2046 61.01 24.9722C60.9475 24.8644 60.9475 24.8644 60.8837 24.7544C60.8427 24.6836 60.8018 24.6129 60.7596 24.54C60.2933 23.7382 59.815 22.9436 59.3307 22.1518C59.2886 22.083 59.2466 22.0142 59.2033 21.9434C59.1079 21.7877 59.0121 21.6322 58.9162 21.4768C58.8656 21.3945 58.815 21.3122 58.7629 21.2274C58.7166 21.1524 58.6703 21.0774 58.6226 21.0001C58.5108 20.8065 58.5108 20.8065 58.4309 20.5765Z" fill="#232323"/>
<path d="M63.6044 3.64496C64.4799 3.64496 65.3554 3.64496 66.2575 3.64496C66.8898 4.36561 66.8898 4.36561 67.0197 4.71975C67.2353 5.24729 67.5387 5.70396 67.8554 6.18028C67.9656 6.35132 68.0755 6.52255 68.1851 6.69398C68.2391 6.77822 68.2932 6.86246 68.3488 6.94925C68.6443 7.41156 68.9365 7.87578 69.229 8.33982C69.582 8.89819 69.9438 9.4509 70.3132 9.99938C70.3509 10.0559 70.3886 10.1124 70.4274 10.1707C70.4607 10.2201 70.4939 10.2695 70.5282 10.3203C70.5989 10.4444 70.5989 10.4444 70.5989 10.599C70.652 10.599 70.705 10.599 70.7597 10.599C70.7597 8.30415 70.7597 6.00933 70.7597 3.64496C71.5026 3.64496 72.2454 3.64496 73.0108 3.64496C73.0108 7.21469 73.0108 10.7844 73.0108 14.4623C72.2414 14.4623 71.472 14.4623 70.6793 14.4623C70.3525 13.9912 70.033 13.5196 69.7246 13.0377C69.6802 12.9686 69.6359 12.8996 69.5902 12.8284C69.4439 12.6005 69.2978 12.3724 69.1518 12.1443C69.1 12.0635 69.0483 11.9827 68.995 11.8995C68.778 11.5608 68.5612 11.222 68.3443 10.8832C68.0011 10.347 67.6574 9.81111 67.3127 9.27578C67.2706 9.21041 67.2286 9.14504 67.1853 9.07769C66.984 8.76518 66.7816 8.45344 66.5769 8.14303C66.52 8.05662 66.52 8.05662 66.4621 7.96847C66.3913 7.8611 66.3203 7.75392 66.2489 7.64695C66.0163 7.29366 66.0163 7.29367 66.0163 7.12197C65.9632 7.12197 65.9102 7.12197 65.8555 7.12197C65.8555 9.54428 65.8555 11.9666 65.8555 14.4623C65.1126 14.4623 64.3698 14.4623 63.6044 14.4623C63.6044 10.8926 63.6044 7.32286 63.6044 3.64496Z" fill="#232323"/>
<path d="M55.9623 3.4098C56.0764 3.40981 56.1905 3.41025 56.3046 3.41102C56.3945 3.41119 56.3945 3.41119 56.4863 3.41136C56.6785 3.41179 56.8707 3.41276 57.0629 3.41374C57.1929 3.41413 57.3229 3.41448 57.4529 3.41479C57.7723 3.41565 58.0917 3.41698 58.411 3.41856C58.6731 4.01254 58.9128 4.60924 59.1283 5.2205C59.1574 5.30237 59.1865 5.38424 59.2165 5.4686C59.3115 5.73573 59.406 6.00301 59.5004 6.27029C59.567 6.45801 59.6336 6.64573 59.7003 6.83344C60.2286 8.32341 60.7518 9.81509 61.2722 11.3077C61.6124 12.283 61.9587 13.2559 62.311 14.2272C61.5231 14.2272 60.7351 14.2272 59.9233 14.2272C59.8097 13.8892 59.6963 13.5512 59.5832 13.2131C59.5447 13.098 59.5061 12.983 59.4674 12.868C59.4119 12.7029 59.3566 12.5377 59.3014 12.3724C59.284 12.3209 59.2666 12.2693 59.2487 12.2162C59.1273 11.8514 59.1273 11.8514 59.1273 11.6794C57.118 11.7176 57.118 11.7176 55.0681 11.7566C54.8055 12.5719 54.5428 13.3872 54.2722 14.2272C53.5105 14.2272 52.7488 14.2272 51.964 14.2272C52.1755 13.5835 52.3877 12.9402 52.6007 12.297C52.6192 12.2412 52.6377 12.1853 52.6568 12.1277C53.2028 10.4792 53.762 8.83564 54.3422 7.1981C54.5683 6.55991 54.7929 5.92134 55.0118 5.28081C55.0324 5.22062 55.053 5.16043 55.0742 5.09842C55.1711 4.81484 55.2676 4.53115 55.3637 4.24732C55.3975 4.14799 55.4313 4.04867 55.4651 3.94934C55.4943 3.86316 55.5235 3.77697 55.5535 3.68818C55.6534 3.42032 55.6534 3.42032 55.9623 3.4098ZM56.9783 5.65749C56.9628 5.70463 56.9473 5.75178 56.9313 5.80036C56.8836 5.94498 56.8359 6.0896 56.7882 6.23422C56.732 6.40472 56.6758 6.57524 56.6197 6.74577C56.4776 7.17698 56.335 7.60801 56.1904 8.03841C56.1404 8.1873 56.0905 8.33623 56.0406 8.48516C55.9766 8.6762 55.9123 8.86716 55.8477 9.05801C55.8187 9.14502 55.7896 9.23203 55.7596 9.32167C55.7336 9.39874 55.7077 9.4758 55.6809 9.5552C55.6146 9.75292 55.6146 9.75292 55.6253 9.98092C56.5708 9.98092 57.5164 9.98092 58.4906 9.98092C58.3712 9.37622 58.3711 9.37622 58.2037 8.79523C58.1799 8.72418 58.156 8.65314 58.1314 8.57994C58.1061 8.50625 58.0808 8.43255 58.0547 8.35662C58.0284 8.27888 58.0022 8.20115 57.9751 8.12106C57.892 7.87554 57.8083 7.63024 57.7245 7.38493C57.6677 7.21737 57.6109 7.04979 57.5541 6.8822C57.4158 6.47381 57.2768 6.06558 57.1375 5.65749C57.085 5.65749 57.0325 5.65749 56.9783 5.65749Z" fill="#232323"/>
<path d="M46.5109 3.41007C46.5986 3.41066 46.6862 3.41124 46.7765 3.41184C48.164 3.43871 49.2343 3.8004 50.2575 4.71426C50.9125 5.38048 51.3371 6.23925 51.4937 7.13461C50.6682 7.13461 49.8427 7.13461 48.9922 7.13461C48.8857 6.88086 48.7792 6.62711 48.6695 6.36567C48.3206 5.84741 47.7994 5.59649 47.1817 5.45737C47.0394 5.45023 47.0394 5.45023 46.8942 5.44295C46.8289 5.4373 46.7636 5.43165 46.6963 5.42583C46.0124 5.38952 45.4236 5.56292 44.8659 5.94576C44.116 6.59986 43.8494 7.57902 43.8049 8.51659C43.7748 9.63534 43.7928 10.9517 44.6232 11.8296C45.2289 12.3667 45.8791 12.5427 46.6991 12.5283C47.3899 12.4889 47.9625 12.3212 48.5081 11.902C48.8066 11.5676 48.9262 11.2448 49.0729 10.8255C49.8185 10.8255 50.5641 10.8255 51.3323 10.8255C51.2722 11.3982 51.2347 11.7317 50.9692 12.2096C50.9403 12.2624 50.9114 12.3152 50.8816 12.3695C50.2812 13.425 49.3798 14.0392 48.1954 14.4011C46.7112 14.7318 45.0387 14.6283 43.7119 13.8832C43.3408 13.6396 43.0169 13.3581 42.6982 13.0554C42.6517 13.0129 42.6052 12.9704 42.5573 12.9266C41.5263 11.8982 41.3925 10.3552 41.3869 9.0137C41.3853 8.91512 41.3836 8.81655 41.3819 8.71499C41.3758 7.27931 41.7777 5.8562 42.8142 4.77674C43.8694 3.80925 45.0608 3.39644 46.5109 3.41007Z" fill="#232323"/>
<path d="M95.9451 3.64496C96.5677 3.64496 97.1903 3.64496 97.8318 3.64496C97.8334 3.91158 97.8351 4.1782 97.8367 4.4529C97.8422 5.33199 97.8486 6.21107 97.8554 7.09014C97.8595 7.62334 97.8633 8.15653 97.8664 8.68973C97.8694 9.20391 97.8732 9.71808 97.8776 10.2323C97.8791 10.4288 97.8804 10.6254 97.8813 10.8219C97.8827 11.0964 97.8851 11.3708 97.8877 11.6453C97.8879 11.7273 97.888 11.8093 97.8882 11.8937C97.8891 11.9683 97.8901 12.0428 97.891 12.1195C97.8915 12.1845 97.8919 12.2494 97.8924 12.3164C97.8996 12.4923 97.8996 12.4923 98.0779 12.6329C98.2937 12.6562 98.2937 12.6562 98.5484 12.651C98.6469 12.651 98.7454 12.6509 98.8469 12.6509C98.9537 12.6501 99.0606 12.6493 99.1706 12.6484C99.2807 12.6481 99.3909 12.6479 99.501 12.6478C99.7909 12.6472 100.081 12.6456 100.371 12.6438C100.667 12.6422 100.962 12.6415 101.258 12.6407C101.839 12.639 102.419 12.6362 103 12.6329C103 13.2104 103 13.7878 103 14.3828C99.5077 14.4221 99.5077 14.4221 95.9451 14.4623C95.9451 10.8926 95.9451 7.32286 95.9451 3.64496Z" fill="#232323"/>
<path d="M20.2736 0.0696835C19.1566 0.246053 17.3694 0.869227 16.4053 1.43361C14.8532 2.33898 13.3247 3.97334 12.5251 5.56067C11.7961 7.01866 11.3963 9.37025 11.3963 12.1922C11.3963 13.1798 11.3846 13.2386 11.1377 13.2974C10.9848 13.3209 9.82077 13.4856 8.55091 13.6502C5.4468 14.0382 4.45913 14.4379 3.73014 15.5785C3.35388 16.1899 3.28333 17.1305 3.57728 17.7067C3.89475 18.3181 4.8589 18.8707 5.94064 19.0471C6.42272 19.1294 6.43447 19.1411 6.48151 19.7173C6.55205 20.4345 6.92831 20.8696 7.7984 21.2458C8.28048 21.4575 8.70377 21.528 9.91484 21.575L11.4434 21.6456L11.4081 23.1153C11.3963 23.9266 11.3493 24.6204 11.3023 24.6556C11.2553 24.7027 9.47979 24.8555 7.33984 24.9849C-0.173516 25.4787 0.308561 25.4317 0.14395 25.6551C-0.0676943 25.9373 -0.0441783 26.2195 0.202739 26.5016C0.390867 26.725 0.484931 26.725 2.04874 26.631C2.95411 26.5722 5.09406 26.4546 6.81073 26.3488C8.5274 26.2547 10.2558 26.1371 10.6674 26.1019L11.3963 26.0313V28.3829C11.3963 30.4876 11.4199 30.758 11.608 30.9932C11.7726 31.2048 11.9019 31.2401 12.1371 31.1813C12.5839 31.0755 12.6897 30.5464 12.7015 28.3477C12.7132 27.3129 12.7485 26.337 12.7955 26.1724L12.8779 25.8785L15.982 25.6786C17.6986 25.5728 21.3436 25.3494 24.095 25.173C37.8048 24.3382 36.5584 24.4793 36.5584 23.7738C36.5584 23.0918 36.4409 23.0683 34.1833 23.2094C33.0781 23.2917 32.1374 23.3152 32.1139 23.2917C32.0316 23.2094 32.2903 18.9295 32.5255 16.4133C32.7724 13.7913 32.7959 9.84057 32.5725 8.65302C32.1492 6.33669 31.3026 4.66706 29.7506 3.115C28.2691 1.6335 26.4936 0.681099 24.4242 0.234295C23.366 0.0108936 21.2143 -0.0714124 20.2736 0.0696835ZM25.1179 1.79811C26.6935 2.31546 27.6576 2.90336 28.7511 3.99685C30.3267 5.57242 31.138 7.34788 31.3849 9.79354C31.5378 11.2045 31.4908 12.6978 31.1498 17.2011C31.0204 18.8354 30.8793 20.8931 30.8441 21.7749C30.7853 22.7508 30.7147 23.3858 30.6324 23.4211C30.4678 23.4798 24.7887 23.8679 18.7451 24.2324C16.0995 24.3852 13.6421 24.5498 13.3129 24.5969L12.6897 24.6556V23.327C12.6897 22.598 12.7368 21.9395 12.7838 21.8572C12.8308 21.7867 13.6774 21.6456 14.8062 21.528C17.0049 21.3046 19.674 20.8461 20.3089 20.5756C21.0261 20.2817 21.955 19.4939 22.2372 18.9648C22.7428 17.9653 22.4253 16.9071 21.5317 16.6367C21.1908 16.5426 20.8615 16.5544 20.0385 16.6955C15.5234 17.5068 12.9602 17.7537 9.16233 17.7655C6.26986 17.7655 6.01119 17.7537 5.57614 17.5303C5.31747 17.401 5.03527 17.154 4.92945 16.9777C4.7766 16.6955 4.7766 16.6249 4.95297 16.2487C5.28219 15.5667 6.14052 15.2492 8.28048 15.0023C11.4199 14.6378 13.9478 14.2616 14.1947 14.1087C14.524 13.8971 14.5475 13.2974 14.2418 13.1328C14.1242 13.074 13.7244 13.0505 13.3599 13.0858L12.7015 13.1563L12.7603 11.6983C12.9366 7.28909 13.4187 5.9134 15.4411 3.89103C16.7227 2.60941 18.0161 1.9392 20.156 1.43361C20.2854 1.39834 21.2143 1.38658 22.2137 1.41009C23.8716 1.44537 24.1302 1.48064 25.1179 1.79811ZM21.0379 18.2123C21.0379 18.5415 20.4265 19.1647 19.8621 19.3998C18.263 20.0583 11.4551 20.6462 9.27991 20.3052C8.19817 20.1288 7.84543 19.9289 7.89247 19.4939L7.92774 19.1764L10.2205 19.0941C12.8191 19.0118 15.1354 18.7884 18.4511 18.3063C19.7092 18.1182 20.8145 17.9653 20.8968 17.9536C20.9674 17.9536 21.0379 18.0594 21.0379 18.2123Z" fill="#232323"/>
<path d="M23.5658 5.93692C22.6252 6.18384 21.7551 6.94811 21.2848 7.93578C20.885 8.79411 20.8615 10.0875 21.226 10.8988C22.3548 13.3562 25.4118 13.6031 27.0462 11.3691C27.4107 10.8753 27.7399 9.86409 27.7399 9.24092C27.7399 8.02985 26.9757 6.75998 25.9527 6.25439C25.2825 5.92517 24.1655 5.77231 23.5658 5.93692ZM25.1179 7.30085C25.7058 7.54777 25.9645 7.79469 26.2232 8.35907C26.6582 9.28795 26.3995 10.3697 25.5765 11.0869C25.0591 11.5455 24.7416 11.6395 23.9656 11.569C22.7781 11.4514 22.0608 10.2403 22.3548 8.85291C22.6252 7.54777 23.9421 6.80701 25.1179 7.30085Z" fill="#232323"/>
<path d="M23.7775 8.51193C22.8251 9.25268 23.5659 10.793 24.6829 10.405C25.4119 10.1463 25.6 9.20565 25.0474 8.64127C24.6476 8.25325 24.1773 8.19446 23.7775 8.51193Z" fill="#232323"/>
<path d="M15.9232 6.08976C15.5234 6.23086 14.8767 6.68942 14.4652 7.12446C13.9479 7.66533 13.6304 8.52367 13.6304 9.37024C13.6304 10.4755 13.9126 11.181 14.6181 11.8982C16.711 13.9911 20.0855 12.5684 20.2972 9.49958C20.4383 7.51248 18.992 5.93691 17.0402 5.96042C16.6169 5.96042 16.1231 6.01921 15.9232 6.08976ZM18.0514 7.48896C18.9332 8.02983 19.2742 9.41727 18.7569 10.452C18.0867 11.8159 16.1348 11.9923 15.3235 10.7812C14.8062 9.99341 14.8415 8.73531 15.4058 8.01807C15.9937 7.26556 17.2871 7.00689 18.0514 7.48896Z" fill="#232323"/>
<path d="M16.6286 8.4061C15.7938 8.75884 15.688 9.96992 16.4758 10.3697C17.2048 10.7459 17.922 10.2756 17.922 9.40553C17.922 8.64126 17.2753 8.13567 16.6286 8.4061Z" fill="#232323"/>
<path d="M30.9028 26.725C30.7853 26.8661 30.7265 27.4188 30.703 28.7827C30.6677 30.4288 30.6912 30.6875 30.8676 30.8874C31.1145 31.1578 31.5378 31.1813 31.7847 30.9226C31.9375 30.7698 31.9728 30.4053 31.9728 28.7592C31.9728 26.9132 31.9611 26.7603 31.7494 26.6427C31.4084 26.4664 31.0792 26.5016 30.9028 26.725Z" fill="#232323"/>
</svg>
